<?xml version="1.0" encoding="utf-8"?>
<!-- Generator: Adobe Illustrator 16.0.3, SVG Export Plug-In . SVG Version: 6.00 Build 0)  -->
<!DOCTYPE svg PUBLIC "-//W3C//DTD SVG 1.1//EN" "http://www.w3.org/Graphics/SVG/1.1/DTD/svg11.dtd">
<svg version="1.1" id="Layer_1" xmlns:svg="http://www.w3.org/2000/svg"
	 xmlns="http://www.w3.org/2000/svg" xmlns:xlink="http://www.w3.org/1999/xlink" x="0px" y="0px" width="477.643px" height="540px"
	 viewBox="117.638 0 477.643 540" enable-background="new 117.638 0 477.643 540" xml:space="preserve">
<g id="g195">
	<path id="path167" fill="#E35B27" d="M296.72,261.152v7.728v7.726l-16.968-7.726L296.72,261.152z M355.962,277.095h15.574v-15.456
		h-15.574V277.095z"/>
	<path id="path169" fill="#FFECD1" d="M199.997,235.81v-15.178h77.976v12.671l-57.507,69.62h57.507V318.1h-79.785v-12.671
		l57.506-69.619H199.997z M460.654,220.632h16.986V318.1h-14.314l-53.635-69.341V318.1h-16.988v-97.468h15.84l52.111,67.394V220.632
		z M318.015,220.632h-3.146H299.41v15.456v25.55v15.456v11.79v13.761v9.965v5.49h18.605h53.521v-15.455h-53.521h-3.148v-13.761
		v-11.79h3.148h35.256v-9.648v-5.807h-35.256h-3.148v-25.55h3.148h53.521v-15.456H318.015z"/>
	<g id="g189">
		<path id="path173" fill="#FFECD1" d="M258.367,354.684c-2.617,2.334-5.681,3.498-9.19,3.498c-3.512,0-6.33-1.121-8.454-3.365
			c-2.126-2.248-3.189-5.062-3.189-8.439c0-3.25,1.073-6.04,3.222-8.373c2.146-2.334,4.899-3.499,8.259-3.499
			c1.829,0,3.406,0.25,4.725,0.75c1.318,0.502,2.587,1.267,3.81,2.29l-1.667,1.963c-2.007-1.744-4.329-2.615-6.966-2.615
			c-2.508,0-4.585,0.914-6.231,2.748c-1.646,1.828-2.468,4.054-2.468,6.67c0,2.791,0.822,5.08,2.468,6.869
			c1.646,1.787,3.844,2.682,6.591,2.682c2.528,0,4.73-0.762,6.607-2.289v-5.691h-6.966v-2.322h9.452v9.125H258.367z"/>
		<path id="path175" fill="#FFECD1" d="M283.125,357.79h-3.171l-6.641-8.896h-6.542v8.896h-2.584v-22.896h9.845
			c2.508,0,4.516,0.623,6.019,1.865c1.505,1.243,2.257,2.899,2.257,4.971c0,1.854-0.567,3.348-1.702,4.481
			c-1.133,1.133-2.636,1.875-4.512,2.224L283.125,357.79z M279.692,341.83c0-1.417-0.513-2.531-1.538-3.337
			s-2.465-1.209-4.316-1.209h-7.065v9.288h7.032c1.746,0,3.161-0.426,4.251-1.276C279.146,344.446,279.692,343.289,279.692,341.83
			L279.692,341.83z"/>
		<path id="path177" fill="#FFECD1" d="M298.722,334.73l10.432,23.06h-2.779l-2.682-6.052h-12.458l-2.713,6.052h-2.649l10.428-23.06
			H298.722z M302.677,349.417l-5.198-11.677l-5.229,11.677H302.677z"/>
		<path id="path179" fill="#FFECD1" d="M330.806,342.189c0,2.375-0.855,4.224-2.566,5.543s-3.855,1.979-6.428,1.979h-5.561v8.078
			h-2.584v-22.896h8.568c2.596,0,4.674,0.654,6.232,1.963C330.027,338.167,330.806,339.941,330.806,342.189L330.806,342.189z
			 M328.189,342.288c0-1.615-0.549-2.853-1.65-3.713c-1.1-0.861-2.602-1.292-4.498-1.292h-5.789v10.074h5.658
			c1.896,0,3.416-0.465,4.563-1.392C327.617,345.04,328.189,343.814,328.189,342.288z"/>
		<path id="path181" fill="#FFECD1" d="M351.314,347.487h-13.215v10.303h-2.584v-22.896h2.584v10.172h13.217v-10.172h2.584v22.896
			h-2.584v-10.303H351.314z"/>
		<path id="path183" fill="#FFECD1" d="M360.603,334.896h2.584v22.895h-2.584V334.896z"/>
		<path id="path185" fill="#FFECD1" d="M389.511,354.158c-1.307,1.332-2.67,2.333-4.088,3.01c-1.416,0.677-3.104,1.014-5.068,1.014
			c-3.289,0-6.027-1.133-8.207-3.4c-2.184-2.269-3.271-5.069-3.271-8.405c0-3.313,1.096-6.122,3.287-8.423
			c2.193-2.298,4.957-3.449,8.291-3.449c1.941,0,3.6,0.305,4.971,0.915c1.373,0.611,2.695,1.515,3.957,2.715l-1.764,1.896
			c-2.201-2.093-4.604-3.14-7.197-3.14c-2.527,0-4.637,0.9-6.326,2.697c-1.691,1.801-2.537,4.04-2.537,6.723
			s0.852,4.934,2.551,6.754c1.703,1.821,3.807,2.729,6.313,2.729c1.484,0,2.793-0.271,3.926-0.817
			c1.137-0.543,2.289-1.373,3.471-2.484L389.511,354.158z"/>
		<path id="path187" fill="#FFECD1" d="M396.021,340.619c0,1.156,0.43,2.06,1.293,2.715c0.859,0.653,2.502,1.243,4.922,1.766
			c2.596,0.567,4.484,1.357,5.674,2.371c1.188,1.014,1.781,2.394,1.781,4.137c0,1.963-0.73,3.539-2.189,4.727
			c-1.461,1.189-3.336,1.782-5.627,1.782c-3.51,0-6.629-1.22-9.352-3.663l1.604-1.896c1.219,1.113,2.445,1.93,3.676,2.454
			c1.232,0.521,2.625,0.784,4.17,0.784c1.527,0,2.762-0.364,3.695-1.095c0.939-0.73,1.408-1.673,1.408-2.829
			c0-1.133-0.416-2.027-1.242-2.684c-0.83-0.652-2.398-1.22-4.711-1.701c-2.703-0.588-4.66-1.377-5.871-2.369
			c-1.209-0.993-1.813-2.414-1.813-4.268c0-1.834,0.709-3.339,2.125-4.517c1.42-1.177,3.217-1.765,5.395-1.765
			c3.031,0,5.713,0.937,8.049,2.813l-1.506,1.996c-2.027-1.657-4.229-2.484-6.605-2.484c-1.461,0-2.641,0.354-3.531,1.062
			C396.468,338.662,396.021,339.551,396.021,340.619z"/>
	</g>
	<path id="path191" fill="#E35B27" d="M189.81,409.774c0.314,0.232,0.475,0.358,0.458,0.36c-0.017,0.005-0.208-0.11-0.599-0.364
		c-0.387-0.259-0.975-0.65-1.783-1.188c-1.623-1.075-4.008-2.921-7.442-5.507c-3.738-3.011-8.755-7.104-14.68-12.973
		c-3.208-3.402-6.277-6.922-9.194-10.56c3.318,3.836,7.506,8.334,12.916,13.402c1.229,1.157,2.46,2.313,3.67,3.454
		c1.225,1.127,2.49,2.169,3.687,3.206c1.208,1.024,2.376,2.017,3.485,2.955c1.146,0.897,2.227,1.741,3.228,2.523
		c2.004,1.551,3.66,2.861,4.875,3.694C189.029,409.211,189.494,409.546,189.81,409.774L189.81,409.774z M301.371,442.615
		c-0.938,0.054-1.883,0.108-2.813,0.162c0.814-0.043,1.639-0.078,2.449-0.119c1.785-0.111,3.57-0.161,5.383-0.373l0.563-0.101
		C305.25,442.39,303.324,442.514,301.371,442.615L301.371,442.615z M291.008,444.174c0.258,0.097,2.526,0.299,6.174,0.353
		c-1.985,0.111-3.94,0.06-5.864,0.08c-1.92-0.021-3.806,0.056-5.661-0.063c-3.7-0.188-7.294-0.271-10.753-0.668
		c-1.728-0.177-3.433-0.345-5.117-0.517c-1.677-0.184-3.316-0.467-4.943-0.699c-1.625-0.247-3.224-0.49-4.808-0.734
		c-1.532-0.305-3.043-0.605-4.537-0.906c4.806,1.072,9.611,1.938,14.413,2.601c6.8,0.756,13.636,1.064,19.987,1.013
		c2.703,0.021,4.943,0.079,6.82,0.038c1.873-0.057,3.382-0.098,4.64-0.136c2.52-0.063,4.021-0.088,5.354-0.182
		c1.92-0.234,3.961-0.479,6.115-0.741c2.148-0.285,4.402-0.712,6.789-1.097c2.387-0.371,4.869-0.918,7.479-1.488
		c1.307-0.288,2.645-0.584,4.012-0.891c1.354-0.354,2.742-0.718,4.158-1.092c-1.393,0.359-2.438,0.626-3.836,0.984l0.211-0.051
		c-0.418,0.104-0.551,0.147-0.979,0.233c-3.877,0.823-7.002,1.473-8.596,1.769c-1.604,0.248-1.65,0.269,0.621-0.137
		c-0.781,0.146-1.07,0.164-1.285,0.197c-2.193,0.338-4.313,0.663-6.375,0.978c-2.055,0.333-4.08,0.47-6.051,0.694
		c-3.939,0.462-7.727,0.605-11.436,0.797c3.27-0.238,5.946-0.373,8.209-0.592c2.27-0.233,4.146-0.426,5.842-0.595
		c1.709-0.147,3.232-0.354,4.793-0.571c1.563-0.221,3.162-0.447,5.018-0.711c3.051-0.523,5.939-1.153,9.26-1.829
		c0.35-0.073,0.561-0.131,0.768-0.185c0-0.002-0.525,0.13-1.473,0.291c-0.934,0.177-2.27,0.418-3.879,0.707
		c-3.205,0.648-7.531,1.182-11.852,1.73c-2.162,0.233-4.336,0.381-6.363,0.552c-1.02,0.081-2.004,0.154-2.934,0.229
		c-0.936,0.035-1.814,0.063-2.631,0.1c-3.258,0.098-5.432,0.164-5.432,0.164C292.494,444.002,290.75,444.043,291.008,444.174
		L291.008,444.174z M306.39,442.285c0,0-0.497,0.098-1.247,0.247c-0.746,0.156-1.746,0.293-2.752,0.462
		c-2.013,0.309-4.021,0.62-4.021,0.62s-0.545,0.025-1.359,0.063c-0.809,0.05-1.896,0.05-2.981,0.05c-2.17,0-4.339-0.008-4.339-0.008
		s1.789,0.033,3.593,0.069c0.892,0.012,1.793,0.021,2.464,0.033c0.675-0.011,1.12-0.021,1.12-0.021
		c5.081-0.371,13.471-0.709,26.028-3.072c1.555-0.325,3.188-0.666,4.887-1.022c1.699-0.354,3.459-0.737,5.273-1.229
		c1.816-0.479,3.713-0.975,5.662-1.49c1.945-0.563,3.949-1.211,6.027-1.862c8.287-2.688,17.596-6.303,27.654-11.515
		c-12.639,6.332-24.455,10.41-35.373,13.323C326.089,439.792,316,441.488,306.39,442.285z M255.384,440.993
		c0.037,0.009,0.076,0.017,0.114,0.023c-0.238-0.054-0.475-0.101-0.711-0.154C254.988,440.905,255.18,440.95,255.384,440.993z
		 M298.511,445.063c-0.987,0.089-1.89,0.146-2.745,0.192c11.062-0.124,21.989-1.292,32.644-3.438
		c0.277-0.061,0.539-0.109,0.814-0.164c0.65-0.137,1.299-0.285,1.951-0.424c1.867-0.436,3.521-0.895,4.902-1.246
		c1.609-0.436,2.854-0.775,3.627-0.984c0.758-0.25,1.051-0.366,0.77-0.314c-3.318,0.909-6.295,1.598-8.926,2.243
		c-2.652,0.566-4.984,0.999-7.035,1.393c-2.033,0.419-3.818,0.635-5.361,0.857c-1.545,0.205-2.859,0.384-3.99,0.538
		c-4.553,0.509-6.248,0.497-8.449,0.637c-1.535,0.207-2.998,0.314-4.367,0.416C300.973,444.873,299.693,444.973,298.511,445.063z
		 M295.621,442.923c-12.635,0.307-24.838-0.609-37.841-3.083c-3.24-0.661-6.565-1.282-9.905-2.202
		c-1.677-0.438-3.368-0.88-5.098-1.326c-1.708-0.5-3.429-1.058-5.183-1.605c-7.021-2.162-14.333-5.066-22.053-8.672
		c-6.067-2.754-12.412-6.079-18.951-9.999c4.157,2.752,8.444,5.345,12.872,7.754c6.659,3.327,13.413,6.293,20.229,8.655
		c3.792,1.44,7.642,2.535,11.428,3.688c1.895,0.588,3.816,0.999,5.707,1.499c1.903,0.449,3.768,0.981,5.67,1.341
		C267.605,442.188,282.311,443.313,295.621,442.923z M318.103,101.928c-2.268-0.375-4.566-0.718-6.912-1.003
		c0.566,0.079,1.137,0.159,1.689,0.238C314.673,101.425,316.412,101.681,318.103,101.928z M311.189,100.925
		c-0.381-0.056-0.754-0.111-1.139-0.163c-0.961-0.096-1.934-0.189-2.914-0.287C308.498,100.605,309.847,100.758,311.189,100.925z
		 M120.311,273.966c0.099,2.493,0.379,5.149,0.696,8.019c0,0-0.098-1.244-0.246-3.111c-0.186-1.859-0.214-4.362-0.301-6.852
		c-0.031-1.246-0.082-2.49-0.088-3.658c0.019-1.167,0.038-2.258,0.053-3.192c0.039-1.868,0.064-3.113,0.064-3.113
		c0.114-11.934,1.547-21.447,2.331-26.811c0.955-5.335,1.159-6.593,0.145-1.966c-0.451,2.023-0.666,3.979-0.983,5.835
		c-0.264,1.865-0.615,3.646-0.774,5.421c-0.355,3.543-0.806,6.95-0.934,10.585c-0.088,1.818-0.211,3.684-0.255,5.644
		c0.001,1.962,0.002,4.015,0.004,6.2C119.989,269.157,120.202,271.471,120.311,273.966z M118.255,267.951
		c0.056,1.951,0.224,3.904,0.338,5.822c0.187,3.834,0.721,7.473,1.067,10.603c0.919,6.233,1.732,10.368,1.698,9.606
		c0,0-0.107-0.547-0.268-1.511c-0.159-0.961-0.39-2.333-0.666-3.98c-0.135-0.825-0.281-1.72-0.436-2.667
		c-0.143-0.946-0.243-1.953-0.372-2.99c-0.232-2.079-0.532-4.291-0.711-6.518c-0.15-2.229-0.298-4.454-0.437-6.542
		c-0.133-2.09-0.11-4.047-0.156-5.722c-0.019-1.675-0.038-3.073-0.051-4.048c0.03-0.979,0.046-1.537,0.046-1.537
		c0.21-5.518,0.696-10.713,1.281-15.232c-0.533,3.542-0.948,7.079-1.262,10.608c-0.029,0.902-0.059,1.831-0.09,2.799
		c-0.048,1.754-0.139,3.601-0.08,5.503C118.191,264.045,118.223,265.996,118.255,267.951L118.255,267.951z M318.3,101.958
		c-0.066-0.009-0.135-0.02-0.197-0.03c0.113,0.021,0.23,0.041,0.35,0.06C318.402,101.977,318.355,101.97,318.3,101.958z
		 M335.111,105.659c1.998,0.571,3.555,1.006,4.564,1.265c-6.033-1.824-13.34-3.61-21.225-4.938c3.395,0.675,6.58,1.222,9.363,1.886
		C330.628,104.563,333.105,105.141,335.111,105.659z M138.076,351.053c0.423,0.719,0.817,1.387,1.191,2.021
		c-0.442-0.751-0.898-1.527-1.371-2.333C137.956,350.844,138.017,350.953,138.076,351.053L138.076,351.053z M142.958,359.152
		c-0.507-0.799-1.142-1.809-1.939-3.104C141.719,357.211,142.37,358.236,142.958,359.152z M139.267,353.075
		c0.47,0.799,0.923,1.571,1.359,2.313C140.215,354.688,139.759,353.912,139.267,353.075z M146.91,365.23
		c-0.241-0.36-0.833-1.233-1.787-2.741c-0.564-0.896-1.299-1.996-2.165-3.337c1.115,1.755,1.565,2.423,1.392,2.24
		c-0.208-0.296-1.72-2.316-3.706-5.504c-0.284-0.436-0.578-0.895-0.878-1.367c0.567,1.018,1.144,2.033,1.73,3.039
		c1.135,1.734,2.176,3.232,3.009,4.455C146.331,364.717,147.385,365.959,146.91,365.23z M390.039,412.767
		c-1.504,0.961-3.158,2.119-5.049,3.236c-7.449,4.646-17.871,10.065-28.793,14.3c-10.896,4.293-22.266,7.3-30.904,8.914
		c-8.631,1.665-14.473,2.197-14.477,2.202c0,0,0.43-0.043,1.174-0.116c0.746-0.058,1.807-0.174,3.076-0.366
		c1.27-0.181,2.752-0.393,4.34-0.617c0.791-0.112,1.611-0.238,2.445-0.357c0.828-0.156,1.668-0.309,2.514-0.466
		c3.354-0.644,6.721-1.274,9.201-1.927c2.49-0.611,4.154-1.021,4.154-1.021s1.016-0.228,2.742-0.771
		c1.742-0.533,4.232-1.264,7.189-2.225c5.873-2.053,13.682-4.917,21.107-8.622c1.891-0.86,3.723-1.829,5.521-2.792
		c1.797-0.974,3.59-1.869,5.27-2.858c3.336-1.988,6.494-3.784,9.064-5.542c2.592-1.719,4.768-3.125,6.217-4.225
		c1.465-1.069,2.305-1.682,2.305-1.682s-1.189,0.857-3.262,2.357C392.841,410.951,391.519,411.774,390.039,412.767L390.039,412.767z
		 M137.767,350.521c0.044,0.075,0.084,0.145,0.129,0.221c-0.066-0.114-0.133-0.235-0.2-0.352
		C137.718,350.434,137.743,350.479,137.767,350.521z M135.454,346.229c0.802,1.517,1.525,2.918,2.243,4.162
		c-0.737-1.302-1.476-2.71-2.271-4.22C135.435,346.189,135.444,346.208,135.454,346.229z M233.385,121.978
		c7.252-2.953,15.169-5.488,23.312-7.359c-21.014,4.61-40.422,13.54-57.261,25.8c-1.007,0.742-2.02,1.474-3.012,2.244
		c-0.19,0.146-0.378,0.295-0.567,0.442c-3.42,2.678-6.752,5.512-9.963,8.513c-13.173,12.315-24.314,27.254-32.378,43.448
		c-0.966,2.043-1.993,4.054-2.894,6.117c-0.871,2.074-1.74,4.145-2.608,6.209c-0.766,2.103-1.529,4.199-2.288,6.29
		c-0.766,2.088-1.338,4.231-2.005,6.334c-2.49,8.463-4.247,17.003-5.294,25.432c-1.948,16.888-1.092,33.233,1.836,47.696
		c1.758,9.075,4.284,17.375,7.134,24.84c-0.194-0.521-0.385-1.057-0.573-1.61c-3.315-9.149-7.272-22.662-8.667-39.361
		c-0.682-8.334-0.748-17.425,0.149-26.957c0.887-9.53,2.744-19.489,5.718-29.471c2.963-9.982,7.066-20.011,12.312-29.625
		c5.238-9.611,11.616-18.801,18.913-27.181c14.584-16.809,33.01-30.018,51.925-38.585c9.46-4.308,19.041-7.486,28.309-9.646
		c9.274-2.17,18.242-3.32,26.534-3.754c4.149-0.283,8.132-0.205,11.918-0.19c3.781,0.196,7.373,0.298,10.723,0.705
		c1.676,0.182,3.309,0.292,4.865,0.528c1.561,0.234,3.057,0.461,4.5,0.678c0.721,0.11,1.426,0.217,2.113,0.322
		c0.691,0.135,1.357,0.269,2.014,0.398c1.313,0.266,2.563,0.519,3.742,0.761c2.387,0.436,4.453,1.06,6.277,1.501
		c1.814,0.471,3.369,0.842,4.594,1.251c2.475,0.768,3.789,1.18,3.789,1.18c-1.262-0.391-2.877-0.888-4.779-1.476
		c-1.932-0.529-4.174-1.074-6.666-1.71c-2.498-0.63-5.307-1.104-8.303-1.728c-1.508-0.277-3.078-0.476-4.695-0.725
		c-1.617-0.225-3.275-0.526-5-0.658c-1.723-0.167-3.484-0.336-5.279-0.511c-1.802-0.152-3.646-0.194-5.524-0.295
		c-0.938-0.041-1.886-0.081-2.835-0.122c-0.956,0.002-1.917,0.006-2.882,0.006c-1.935,0.037-3.896-0.047-5.871,0.091
		c-7.918,0.229-16.107,1.291-24.118,2.876c-16.063,3.123-31.151,9.21-42.419,15.365c-8.806,4.714-15.323,9.402-19.064,12.231
		c0.448-0.325,0.897-0.649,1.337-0.975c1.302-0.931,2.548-1.901,3.846-2.761c2.612-1.689,5.077-3.443,7.642-4.885
		c1.265-0.747,2.509-1.483,3.739-2.205c1.243-0.698,2.498-1.334,3.717-1.986c1.23-0.634,2.421-1.303,3.632-1.876
		c1.216-0.569,2.414-1.129,3.593-1.679c9.464-4.342,18.171-7.142,25.843-9.06c1.927-0.444,3.763-0.968,5.57-1.285
		c1.801-0.34,3.531-0.666,5.192-0.979c1.66-0.312,3.278-0.478,4.811-0.702c1.537-0.189,3-0.451,4.419-0.536
		c1.41-0.115,2.758-0.229,4.039-0.332c1.283-0.104,2.499-0.206,3.661-0.216c2.318-0.061,4.388-0.125,6.221-0.132
		c3.675,0.131,6.407,0.186,8.325,0.421c1.921,0.221,3.024,0.41,3.446,0.563c0.847,0.308-1.033,0.466-4.647,0.511l-0.828-0.115
		c-4.986-0.126-9.825,0.082-14.365,0.479c3.741-0.279,7.519-0.424,11.33-0.424c53.743,0,100.991,28.311,127.638,70.795
		c-2.367,1.291-4.693,2.769-6.943,4.44c-13.928-22.27-33.854-40.399-57.506-52.15c-1.816-0.886-3.627-1.736-5.426-2.55
		c-1.518-0.643-3.018-1.278-4.504-1.907c-1.486-0.628-3.01-1.125-4.496-1.683c-2.949-1.156-5.945-1.991-8.852-2.908
		c-11.717-3.426-22.957-4.984-33.364-5.363c1.438,0.075,2.795,0.145,4.091,0.214c1.289,0.129,2.506,0.254,3.66,0.374
		c1.152,0.12,2.242,0.233,3.264,0.337c1.016,0.16,1.969,0.303,2.857,0.439c1.779,0.287,3.318,0.512,4.613,0.75
		c1.297,0.28,2.361,0.512,3.213,0.696c3.418,0.76,3.475,0.853,1.268,0.495c-1.104-0.19-2.775-0.48-4.871-0.842
		c-2.117-0.259-4.656-0.63-7.502-0.956c-5.699-0.537-12.621-0.93-19.615-0.676c-2.181,0.093-4.364,0.231-6.521,0.411
		c-57.294,4.094-108.468,43.476-124.795,101.978c-8.985,32.195-5.935,64.902,6.434,93.337c0.085,0.226,0.189,0.49,0.32,0.821
		c0.323,0.759,0.811,1.8,1.448,3.193c0.646,1.387,1.409,3.139,2.539,5.202c0.545,1.042,1.142,2.177,1.794,3.42
		c0.672,1.229,1.47,2.521,2.295,3.939c3.377,5.623,8.105,12.803,15.405,21.042c0,0,0.502,0.547,1.26,1.369
		c0.735,0.845,1.787,1.898,2.854,2.942c1.059,1.046,2.118,2.099,2.912,2.882c0.828,0.75,1.378,1.254,1.378,1.254
		c2.345,2.545,2.311,2.719,1.23,1.929c-1.071-0.792-3.23-2.502-4.928-3.901c1.44,1.559,3.223,3.188,4.767,4.671
		c1.523,1.503,2.93,2.722,3.687,3.403c0.75,0.68,0.849,0.826-0.136,0.048c-0.485-0.399-1.277-0.987-2.333-1.919
		c-1.042-0.949-2.4-2.188-4.128-3.76c6.635,6.4,12.601,10.896,17.478,14.318c1.226,0.847,2.375,1.639,3.452,2.388
		c1.108,0.696,2.146,1.346,3.107,1.95c0.966,0.605,1.859,1.17,2.687,1.692c0.837,0.497,1.625,0.929,2.339,1.339
		c1.427,0.825,2.591,1.5,3.537,2.045c0.938,0.547,1.678,0.908,2.194,1.213c1.045,0.598,1.277,0.805,0.952,0.75
		c-1.36-0.071-11.31-5.076-13.2-6.268c-4.527-3.04-13.431-9.023-22.956-18.038c-4.712-4.542-9.671-9.729-14.23-15.583
		c-4.569-5.844-8.857-12.234-12.576-18.855c7.389,13.332,14.936,22.565,20.666,28.781c2.939,3.051,5.286,5.512,7.197,7.232
		c1.861,1.771,3.129,2.971,3.833,3.561c0.683,0.614,0.738,0.702,0.17,0.27c-0.283-0.221-0.723-0.571-1.325-1.039
		c-0.581-0.497-1.297-1.145-2.168-1.924c-0.869-0.775-1.886-1.691-3.055-2.742c-1.113-1.105-2.369-2.354-3.766-3.739
		c-2.758-2.809-5.949-6.317-9.413-10.626c1.836,2.27,3.643,4.571,5.634,6.721c0.985,1.084,1.925,2.209,2.948,3.256l3.08,3.138
		c1.007,1.065,2.083,2.06,3.167,3.052l3.228,2.982l3.363,2.82c1.118,0.939,2.233,1.887,3.413,2.75
		c9.24,7.131,19.224,13.155,29.538,17.728c10.319,4.576,20.871,7.822,31.162,9.861c10.295,2.039,20.323,2.857,29.642,2.743
		c9.326-0.103,17.933-1.122,25.55-2.567c1.895-0.399,3.76-0.692,5.529-1.151c1.773-0.44,3.488-0.866,5.141-1.276
		c1.646-0.438,3.219-0.946,4.732-1.385c0.758-0.226,1.496-0.449,2.225-0.668c0.723-0.224,1.42-0.484,2.107-0.721
		c1.367-0.477,2.668-0.934,3.902-1.363c1.244-0.417,2.369-0.933,3.467-1.349c2.166-0.863,4.068-1.596,5.625-2.333
		c3.146-1.384,5.125-2.252,5.76-2.528c-6.352,3.128-11.439,5.302-17.264,7.308c-5.809,2.053-12.338,4.074-21.809,5.95
		c-1.182,0.261-2.215,0.454-3.113,0.58c-0.895,0.148-1.645,0.271-2.27,0.369c-1.238,0.212-1.967,0.333-2.275,0.39
		c-0.615,0.119,0.434-0.012,2.295-0.269c0.934-0.133,2.066-0.29,3.303-0.464c1.229-0.199,2.547-0.482,3.861-0.729
		c1.254-0.253,2.508-0.472,3.652-0.732c-8.109,1.894-15.813,2.984-24.848,3.468c-10.212,0.462-22.248,0.232-38.23-3.105
		c5.479,1.198,10.36,1.975,14.661,2.49c2.152,0.221,4.155,0.421,6.017,0.613c1.873,0.1,3.602,0.191,5.193,0.28
		c1.589,0.111,3.051,0.104,4.388,0.111c1.336,0.011,2.548,0.018,3.641,0.026c2.191,0,3.912-0.126,5.245-0.152
		c1.326-0.033,2.26-0.063,2.869-0.076c0.605-0.032,0.893-0.032,0.922-0.01c0.059,0.05-0.893,0.235-2.307,0.351
		c-1.416,0.129-3.288,0.3-5.04,0.459c-1.758,0.146-3.41,0.164-4.383,0.262c-0.969,0.071-1.264,0.146-0.306,0.219
		c0.962,0.043,3.174,0.245,7.212,0.061c-3.568,0.239-6.988,0.113-10.29,0.136c-1.648-0.074-3.271-0.152-4.876-0.227
		c-0.801-0.041-1.59-0.078-2.382-0.121c-0.79-0.068-1.574-0.146-2.352-0.217c-1.561-0.151-3.105-0.305-4.639-0.451
		c-1.525-0.182-3.045-0.434-4.553-0.647c-3.038-0.375-6.011-1.024-9.026-1.612c-1.517-0.262-3.004-0.678-4.517-1.046
		c-1.515-0.384-3.051-0.742-4.583-1.155c-1.529-0.465-3.075-0.929-4.643-1.401c-0.785-0.24-1.575-0.482-2.37-0.729
		c-0.787-0.284-1.579-0.565-2.381-0.852c-6.433-2.179-13.15-5.13-20.406-8.957c11.864,6.386,20.163,9.005,24.946,10.627
		c2.42,0.766,3.988,1.263,4.864,1.541c0.874,0.267,1.055,0.315,0.671,0.247c-0.767-0.141-3.706-1.016-7.636-2.161
		c-1.938-0.678-4.112-1.437-6.381-2.229c-2.252-0.836-4.55-1.834-6.814-2.744c-2.242-0.963-4.372-2.026-6.34-2.929
		c-1.963-0.908-3.644-1.894-5.036-2.6c-2.784-1.427-4.141-2.293-3.148-1.645c0.484,0.34,1.622,0.946,3.508,1.986
		c0.938,0.514,2.07,1.132,3.406,1.865c1.373,0.661,2.952,1.427,4.762,2.307c1.792,0.908,3.897,1.75,6.238,2.74
		c2.319,1.035,4.983,1.943,7.9,3.007c1.452,0.557,3.008,1.021,4.637,1.512c1.634,0.478,3.319,1.051,5.113,1.512
		c1.802,0.454,3.678,0.925,5.633,1.413c1.955,0.478,4.024,0.819,6.163,1.263c-10.311-1.791-17.983-4.003-23.744-5.948
		c-1.443-0.487-2.795-0.883-4.009-1.342c-1.22-0.452-2.333-0.87-3.36-1.249c-1.025-0.376-1.963-0.718-2.819-1.027
		c-0.846-0.343-1.609-0.653-2.298-0.93c-5.552-2.176-6.564-2.371-7.787-2.581c-0.608-0.107-1.26-0.247-2.53-0.742
		c-1.288-0.459-3.124-1.391-6.126-3.061c-0.745-0.421-1.582-0.861-2.467-1.408c-0.877-0.557-1.835-1.168-2.882-1.834
		c-1.039-0.684-2.187-1.391-3.388-2.23c-1.187-0.861-2.466-1.793-3.848-2.797c-5.45-4.113-12.347-9.778-20.137-18.346
		c-6.695-7.514-8.621-10.43-8.413-9.973c0.213,0.447,2.866,4.017,6.573,8.438c0.949,1.087,1.951,2.238,2.979,3.418
		c1.015,1.196,2.176,2.309,3.276,3.484c2.185,2.361,4.556,4.542,6.652,6.525c4.271,3.881,7.717,6.709,8.074,7.012
		c0,0-0.621-0.449-1.665-1.289c-1.028-0.861-2.496-2.09-4.256-3.565c-1.776-1.456-3.683-3.342-5.807-5.272
		c-1.069-0.961-2.064-2.061-3.136-3.121c-1.044-1.084-2.148-2.146-3.17-3.285c-4.123-4.523-8.041-9.235-10.716-12.967
		c-0.817-1.135-1.56-2.122-2.19-2.992c5.279,7.63,10.272,13.396,14.563,17.982c1.243,1.289,2.413,2.5,3.516,3.64
		c1.133,1.112,2.235,2.119,3.251,3.087c1.029,0.949,1.957,1.881,2.898,2.678c0.94,0.803,1.817,1.553,2.641,2.262
		c0.825,0.703,1.596,1.365,2.321,1.981c0.75,0.587,1.452,1.135,2.111,1.651c1.325,1.029,2.482,1.931,3.527,2.742
		c2.138,1.564,3.86,2.744,5.57,3.959c3.484,2.314,6.985,4.693,14.757,8.837c1.974,0.968,4.185,2.123,6.771,3.311
		c1.302,0.568,2.692,1.17,4.166,1.813c0.741,0.315,1.506,0.643,2.293,0.979c0.803,0.3,1.627,0.611,2.475,0.93
		c4.155,1.617,9.021,3.271,14.713,4.8c-9.405-2.484-17.745-5.554-25.217-9.014c-10.451-4.84-19.317-10.268-27.327-16.174
		c-7.999-5.922-15.16-12.339-21.94-19.677c-6.757-7.353-13.146-15.644-19.125-25.627c0,0,0.813,1.384,2.239,3.806
		c0.766,1.177,1.697,2.606,2.764,4.248c1.041,1.658,2.336,3.446,3.757,5.39c5.657,7.787,14.06,17.635,23.915,25.946
		c9.75,8.422,20.654,15.445,29.268,19.831c2.172,1.063,4.166,2.036,5.929,2.896c1.764,0.86,3.368,1.478,4.652,2.048
		c1.301,0.552,2.316,0.988,3.012,1.281c0.206,0.087,0.378,0.157,0.525,0.218c-0.083-0.031-0.156-0.061-0.257-0.097
		c-0.516-0.219-1.278-0.532-2.243-0.938c-1.929-0.825-4.729-1.905-7.948-3.521c-6.507-3.052-14.937-7.716-22.738-13.322
		c-7.846-5.541-15.036-11.951-20.08-17.076c-1.253-1.289-2.441-2.438-3.418-3.525c-0.976-1.087-1.827-2.036-2.526-2.818
		c-0.584-0.651-1.051-1.18-1.412-1.58c9.193,10.646,12.678,13.228,11.934,12.873c-0.32-0.245-1.675-1.317-3.404-2.969
		c-0.858-0.832-1.833-1.779-2.871-2.785c-0.509-0.494-1.031-1.008-1.561-1.523c2.67,2.85,5.311,5.47,7.877,7.868
		c7.348,6.805,14.188,11.909,20.304,15.993c6.182,3.977,11.56,7.09,16.412,9.457c1.212,0.602,2.376,1.182,3.503,1.739
		c1.124,0.563,2.252,1.01,3.32,1.491c2.159,0.921,4.136,1.882,6.095,2.583c1.946,0.742,3.788,1.446,5.57,2.127
		c1.815,0.596,3.561,1.175,5.293,1.741c0.867,0.282,1.73,0.559,2.591,0.837c0.876,0.235,1.748,0.477,2.629,0.718
		c1.769,0.47,3.55,0.979,5.419,1.429c1.878,0.4,3.832,0.813,5.893,1.256c2.056,0.468,4.277,0.725,6.625,1.117
		c2.356,0.414,4.894,0.633,7.635,0.914c2.731,0.334,5.691,0.403,8.896,0.574c-13.165-0.433-22.515-2.169-29.021-3.508
		c-3.241-0.737-5.785-1.403-7.774-1.875c-1.981-0.525-3.371-0.975-4.333-1.234c-3.821-1.096-0.469,0.024,3.096,1.188
		c3.592,1.056,7.423,2.05,4.34,1.356c-0.772-0.186-1.974-0.471-3.721-0.892c-1.719-0.514-3.982-1.187-6.883-2.058
		c-5.728-1.94-14.078-4.787-25.044-10.617c0.817,0.447,1.608,0.898,2.412,1.32c0.814,0.396,1.618,0.789,2.415,1.185
		c1.592,0.772,3.154,1.526,4.676,2.267c1.555,0.672,3.072,1.32,4.551,1.963c1.482,0.645,2.935,1.259,4.384,1.773
		c2.886,1.063,5.614,2.147,8.291,2.938c2.658,0.84,5.177,1.682,7.626,2.28c11.188,2.901,23.069,4.573,34.088,4.934
		c11.023,0.396,21.144-0.497,29.009-1.71c7.875-1.171,13.502-2.639,15.818-3.211c2.324-0.573,1.35-0.273-4.148,1.175
		c1.039-0.23,0.92-0.205,1.707-0.378c0,0-0.23,0.06-0.668,0.171c-0.438,0.103-1.072,0.293-1.898,0.452
		c-1.654,0.34-4.012,0.819-6.844,1.402c-5.697,0.923-13.341,2.073-21.053,2.303c-7.699,0.293-15.423,0.073-21.169-0.555
		c-1.443-0.136-2.76-0.262-3.927-0.374c-1.162-0.164-2.176-0.313-3.009-0.426c-1.666-0.244-2.62-0.385-2.62-0.385
		c1.77,0.292,3.437,0.563,4.988,0.818c1.559,0.229,3.017,0.36,4.358,0.531c1.353,0.159,2.592,0.301,3.729,0.435
		c1.134,0.105,2.173,0.164,3.105,0.239c3.729,0.285,5.806,0.446,6.407,0.494c4.215-0.012,12.384-0.146,22.423-1.541
		c-2.176,0.313-4.381,0.604-6.646,0.825c-1.311,0.169-2.631,0.257-3.951,0.333c-1.326,0.083-2.643,0.164-3.951,0.245
		c-1.309,0.104-2.611,0.111-3.896,0.128c-1.286,0.021-2.548,0.036-3.789,0.053c0.126,0.026,0,0.058-0.692,0.081
		c-1.821-0.012-2.89-0.134-3.016-0.138c-1.811-0.066-3.511-0.124-5.052-0.182c-1.546-0.063-2.926-0.22-4.116-0.303
		c-2.377-0.191-3.973-0.312-4.472-0.322c-0.487-0.021,0.12,0.103,2.161,0.338c2.042,0.221,5.509,0.704,10.77,0.91
		c-11.899-0.399-18.71-1.647-21.879-2.038c-3.154-0.517-2.684-0.316,0.116,0.341c1.4,0.337,3.407,0.64,5.836,1.064
		c2.423,0.461,5.301,0.771,8.44,1.117c0.787,0.084,1.589,0.18,2.406,0.268c0.815,0.05,1.651,0.104,2.497,0.158
		c1.687,0.102,3.422,0.207,5.181,0.313c1.765,0.021,3.55,0.051,5.343,0.071l2.682,0.025c0.896-0.032,1.789-0.065,2.68-0.098
		c1.772-0.068,3.534-0.138,5.254-0.209c1.721-0.149,3.396-0.29,5.016-0.431c3.246-0.22,6.223-0.739,8.816-1.052
		c1.301-0.151,2.486-0.365,3.555-0.562c1.068-0.186,2.02-0.348,2.828-0.49c1.613-0.275,2.676-0.431,3.008-0.456
		c0.666-0.023-1.551,0.585-8.02,1.972c-3.256,0.56-7.572,1.36-13.187,1.904c-0.7,0.079-1.424,0.157-2.164,0.236
		c-0.737,0.05-1.502,0.097-2.284,0.15c-1.564,0.092-3.212,0.198-4.937,0.301c-1.736,0.074-3.549,0.066-5.45,0.098
		c-0.951,0.01-1.926,0.018-2.917,0.031c-0.379-0.016-0.773-0.028-1.16-0.045c2.589,0.057,4.827-0.046,6.53-0.063
		c1.056-0.03,1.907-0.055,2.524-0.071c0.611-0.05,0.981-0.084,1.071-0.108c0.174-0.052-0.771,0.012-3.165-0.021
		c-1.196-0.005-2.753-0.009-4.712-0.014c-1.962,0.012-4.32-0.177-7.121-0.286c0.748,0.124-0.008,0.182-1.803,0.182
		c-1.793-0.053-4.624-0.242-8.048-0.487c-6.816-0.684-15.925-2.131-23.562-4.093c-1.919-0.447-3.721-1.02-5.41-1.479
		c-1.677-0.494-3.247-0.868-4.582-1.344c-2.684-0.882-4.627-1.51-5.392-1.712c-0.762-0.21-0.353,0.019,1.682,0.825
		c1.023,0.395,2.441,0.94,4.313,1.659c1.899,0.651,4.277,1.395,7.178,2.313c0,0,0.875,0.295,2.45,0.676
		c1.571,0.39,3.815,0.953,6.507,1.629c2.717,0.552,5.889,1.229,9.31,1.806c3.445,0.498,7.104,1.112,10.801,1.396
		c7.381,0.813,14.822,0.813,20.384,0.732c2.777-0.147,5.095-0.271,6.714-0.356c1.618-0.073,2.545-0.197,2.545-0.197
		c13.465-0.916,24.795-3.416,32.221-5.38c1.857-0.509,3.48-0.947,4.84-1.322c1.371-0.373,2.445-0.739,3.258-0.969
		c1.619-0.466,2.107-0.529,1.24-0.102c0,0,0.994-0.359,2.734-0.987c1.736-0.631,4.162-1.69,7.094-2.896
		c5.783-2.583,13.436-6.24,20.59-10.755c7.189-4.457,14.029-9.454,18.879-13.548c1.252-0.979,2.332-1.953,3.289-2.812
		c0.967-0.858,1.801-1.608,2.49-2.224c0.691-0.619,1.23-1.106,1.6-1.438c0.354-0.345,0.545-0.53,0.545-0.53
		c-2.203,2.179-2.926,2.873-2.598,2.73c0.305-0.173,1.684-1.161,3.389-2.699c1.689-1.542,3.895-3.43,5.844-5.366
		c1.957-1.934,3.809-3.763,5.02-4.957c1.182-1.225,1.775-1.763,1.301-1.029c-0.24,0.358-0.721,1.065-1.6,2.104
		c-0.879,1.035-2.102,2.443-3.754,4.291c-0.813,0.937-1.771,1.938-2.869,3.037c-1.092,1.104-2.303,2.319-3.635,3.658
		c-2.768,2.571-6.029,5.651-10.16,8.933c-4.072,3.358-8.996,6.917-14.822,10.722c-5.035,3.136-10.729,6.468-17.301,9.632
		c0.283-0.132,0.578-0.271,0.855-0.397c1.332-0.618,2.559-1.201,3.648-1.796c2.209-1.16,4.027-2.109,5.508-2.885
		c2.896-1.658,4.449-2.552,5.055-2.854c1.188-0.618-1.451,1.133-5.121,3.399c-1.869,1.064-3.998,2.271-6.002,3.405
		c-2.029,1.102-3.982,2.051-5.416,2.802c-2.871,1.478-3.742,2.005,0.482,0.126c0,0-0.744,0.348-2.051,0.969
		c-1.313,0.615-3.234,1.382-5.521,2.35c-4.574,1.928-10.836,4.112-17.191,5.981c-1.586,0.474-3.203,0.854-4.779,1.268
		c-1.582,0.392-3.125,0.839-4.648,1.143c-3.047,0.61-5.877,1.271-8.334,1.646c-2.459,0.383-4.506,0.701-5.943,0.929
		c-0.715,0.113-1.285,0.171-1.67,0.211c-0.387,0.046-0.59,0.063-0.59,0.063c-8.635,1.13-8.254,1.258-3.752,0.979
		c4.51-0.207,13.098-1.269,20.727-2.844c-13.578,3.104-24.077,3.943-31.741,4.364c-3.84,0.076-6.986,0.202-9.513,0.167
		c-2.525-0.043-4.434-0.071-5.808-0.093c-2.752-0.012-3.363-0.05-2.507,0.174c0.86,0.23,3.208,0.406,6.376,0.671
		c3.166,0.32,7.159,0.318,11.313,0.416c4.144-0.114,8.451-0.157,12.218-0.514c1.887-0.157,3.648-0.255,5.188-0.419
		c1.537-0.171,2.861-0.316,3.893-0.434c2.064-0.212,2.949-0.252,1.99,0.006c0,0-0.967,0.148-2.414,0.373
		c-1.455,0.199-3.379,0.572-5.336,0.757c-1.949,0.196-3.895,0.403-5.356,0.559c-1.464,0.161-2.437,0.212-2.437,0.212
		s0.605-0.003,1.664-0.096c1.062-0.085,2.57-0.212,4.387-0.359c0.908-0.078,1.893-0.161,2.936-0.249
		c1.039-0.131,2.131-0.272,3.258-0.414c2.258-0.323,4.686-0.555,7.07-1.032c2.391-0.439,4.793-0.837,7.025-1.314
		c2.225-0.52,4.297-0.999,6.076-1.413c1.787-0.388,3.23-0.87,4.262-1.137c1.027-0.295,1.611-0.456,1.611-0.456
		c-11.801,3.508-15.844,3.977-15.17,3.91c0.664-0.086,5.906-1.219,12.146-2.957c3.104-0.933,6.496-1.876,9.633-3.042
		c1.578-0.555,3.121-1.093,4.566-1.604c1.422-0.567,2.756-1.099,3.943-1.571c4.781-1.86,7.15-3.055,4.105-1.519
		c3.014-1.38,5.451-2.495,7.346-3.365c1.865-0.928,3.203-1.589,4.035-2.003c1.682-0.809,1.396-0.552-0.605,0.616
		c-3.971,2.316-14.916,8.372-31.951,13.609c0,0-0.639,0.333-1.279,0.666c-0.641,0.34-1.289,0.642-1.289,0.642
		c-9.021,2.354-18.504,4.11-28.627,5.146c-10.124,1.019-20.909,1.277-32.433,0.341c-11.52-0.941-23.767-3.082-36.612-6.975
		c-1.602-0.499-3.238-0.948-4.855-1.52c-1.617-0.576-3.25-1.158-4.897-1.748c-0.823-0.3-1.654-0.603-2.485-0.901
		c-0.816-0.338-1.64-0.671-2.47-1.014c-1.652-0.692-3.323-1.389-5.005-2.095c-6.66-3.023-13.506-6.436-20.264-10.668
		c0,0,0.679,0.419,1.863,1.155c0.596,0.363,1.315,0.81,2.145,1.317c0.848,0.476,1.805,1.009,2.847,1.591
		c2.104,1.146,4.511,2.559,7.216,3.832c2.684,1.313,5.526,2.754,8.478,3.958c1.462,0.63,2.93,1.256,4.37,1.874
		c1.452,0.595,2.907,1.102,4.301,1.629c1.4,0.518,2.754,1.016,4.039,1.489c1.285,0.461,2.527,0.82,3.659,1.187
		c2.194,0.684,4.024,1.252,5.343,1.663c-13.706-3.731-24.502-8.577-33.223-13.066c-9.2-4.8-16.032-9.44-21.712-13.248
		c6.963,4.946,12.263,8.337,17.177,11.122c2.457,1.387,4.755,2.754,7.194,3.942c2.426,1.196,4.847,2.54,7.617,3.716
		c2.751,1.207,5.708,2.595,9.193,3.854c1.734,0.649,3.566,1.372,5.56,2.06c2.002,0.641,4.137,1.322,6.432,2.052
		c1.146,0.383,2.342,0.711,3.595,1.032c1.244,0.324,2.532,0.662,3.87,1.011c2.663,0.741,5.569,1.301,8.678,1.941
		c3.096,0.692,6.472,1.118,10.064,1.678c1.794,0.3,3.671,0.434,5.604,0.643c1.938,0.171,3.937,0.44,6.002,0.525
		c2.02,0.086,4.02,0.172,6.007,0.26c1.98,0.105,3.952,0.017,5.901,0.028c3.898,0.03,7.7-0.238,11.399-0.467
		c1.846-0.078,3.658-0.348,5.439-0.519c1.777-0.205,3.537-0.362,5.244-0.621c1.705-0.276,3.381-0.54,5.016-0.802
		c0.82-0.137,1.623-0.265,2.426-0.401c0.787-0.16,1.574-0.319,2.348-0.476c-1.986,0.396-2.76,0.511-2.506,0.463
		c0.26-0.023,1.541-0.295,3.662-0.711c1.025-0.217,2.252-0.477,3.346-0.704c-0.887,0.192-1.365,0.295-2.113,0.462
		c3.094-0.55,7.221-1.602,11.6-2.721c4.344-1.262,8.941-2.629,12.887-4.115c-6.633,2.581-3.736,1.68,4.172-1.234
		c1.949-0.811,4.205-1.75,6.705-2.785c2.463-1.104,5.135-2.403,7.986-3.76c2.781-1.478,5.76-3.002,8.756-4.732
		c1.855-1.115,3.77-2.235,5.672-3.415c-8.998,5.684-16.779,9.501-23.256,12.399c-3.664,1.575-6.891,2.947-9.818,3.978
		c-1.463,0.543-2.83,1.045-4.111,1.516c-1.295,0.444-2.514,0.815-3.654,1.187c-4.561,1.521-8.014,2.392-10.914,3.174
		c-0.727,0.194-1.42,0.378-2.084,0.557c-0.68,0.152-1.328,0.298-1.973,0.442c-1.279,0.284-2.504,0.557-3.77,0.835
		c-2.516,0.604-5.207,1.014-8.715,1.599c-1.75,0.316-3.719,0.554-5.984,0.801c-2.271,0.248-4.828,0.59-7.781,0.729
		c-1.477,0.088-3.049,0.181-4.725,0.279c-1.676,0.109-3.465,0.078-5.367,0.114c-3.81,0.107-8.078-0.088-12.896-0.31
		c0.756,0.051,1.504,0.103,2.221,0.146c2.348,0.101,4.5,0.19,6.475,0.275c1.978-0.002,3.771-0.004,5.403-0.004
		c3.266,0.032,5.876-0.152,7.958-0.233c4.174-0.149,6.232-0.376,7.236-0.407c0.994-0.038,0.92,0.046,0.795,0.132
		c-0.121,0.086-0.301,0.181,0.502,0.169c0.402-0.007,1.039-0.04,2.057-0.116c0.508-0.04,1.104-0.098,1.814-0.152
		c0.705-0.095,1.518-0.2,2.457-0.32c1.869-0.28,4.25-0.565,7.229-1.105c1.482-0.298,3.115-0.621,4.928-0.98
		c0.9-0.188,1.854-0.362,2.838-0.592c0.98-0.247,2.004-0.504,3.072-0.771c8.553-2.136,19.986-5.565,34.326-12.491
		c-2.887,1.379-5.584,2.696-8.203,3.75c-2.602,1.085-5.02,2.144-7.352,2.954c-2.316,0.835-4.457,1.66-6.486,2.321
		c-2.041,0.631-3.926,1.223-5.668,1.77c-1.734,0.564-3.375,0.954-4.863,1.354c-1.492,0.387-2.859,0.737-4.096,1.057
		c-2.486,0.624-4.52,0.992-6.145,1.347c-3.238,0.714-4.92,0.968-5.736,1.105c-0.809,0.144-0.766,0.146-0.607,0.131
		c0.328-0.025,1.111-0.121-3.609,0.626c-0.592,0.088-1.268,0.191-2.039,0.307c-0.779,0.088-1.654,0.187-2.645,0.298
		c-1.975,0.188-4.385,0.53-7.342,0.712c-1.48,0.082-3.098,0.181-4.855,0.279c-0.884,0.043-1.802,0.107-2.755,0.137
		c-0.954,0.007-1.953,0.017-2.987,0.027c-2.063-0.005-4.293,0.079-6.684-0.019c-2.397-0.104-4.954-0.22-7.696-0.339
		c7.014,0.22,6.366,0.058,0.787-0.33c-5.558-0.563-16.1-1.569-28.488-4.627c-12.375-2.973-26.583-8.02-39.597-14.702
		c-13.045-6.621-24.669-14.933-33.108-22.107c0,0-0.737-0.608-2.026-1.674c-1.312-1.04-3.078-2.645-5.191-4.581
		c-4.292-3.808-9.6-9.319-14.645-15.06c-2.04-2.424-4.024-4.881-5.884-7.276c-2.609-3.696-5.083-7.481-7.399-11.364
		c2.565,3.965,5.406,8.043,8.468,11.979c6.703,8.732,14.384,16.673,20.507,22.21c3,2.84,5.715,4.968,7.55,6.531
		c1.836,1.561,2.957,2.364,2.955,2.364c7.066,5.267,9.16,6.278,7.405,4.98c-0.878-0.644-2.622-2.007-5.029-3.92
		c-1.197-0.972-2.614-2.005-4.076-3.275c-1.469-1.263-3.079-2.652-4.804-4.136c-6.79-6.056-14.917-14.318-22.249-23.794
		c-7.378-9.438-13.929-20.038-18.715-29.773c-3.148-6.167-5.896-12.227-8.236-18.763c-5.617-17.125-8.645-35.208-8.746-53.669
		c0.303,7.57,1.104,15.41,2.459,23.416c1.446,7.82,3.334,15.812,5.947,23.793c2.645,7.965,5.874,15.949,9.76,23.799
		c7.906,15.617,18.365,30.746,31.458,43.917c6.526,6.583,13.583,12.801,21.248,18.295c7.639,5.516,15.771,10.438,24.248,14.67
		c2.427,1.133,4.58,2.134,6.475,3.012c1.925,0.784,3.593,1.459,5,2.033c1.412,0.555,2.569,1.027,3.505,1.36
		c0.938,0.312,1.64,0.54,2.116,0.696c0.956,0.301,1.02,0.273,0.316-0.021c-0.692-0.321-2.182-0.828-4.229-1.758
		c-4.122-1.786-10.748-4.621-18.407-8.969c-7.681-4.281-16.437-9.966-24.877-16.863c-8.458-6.869-16.577-14.925-23.458-23.229
		c-1.683-2.104-3.363-4.164-4.944-6.233c-1.526-2.107-3.017-4.177-4.468-6.187c-1.351-2.074-2.665-4.091-3.932-6.033
		c-1.252-1.945-2.326-3.905-3.408-5.732c-0.528-0.92-1.064-1.809-1.538-2.695c-0.466-0.896-0.918-1.765-1.357-2.604
		c-0.865-1.687-1.696-3.256-2.403-4.73c-1.362-2.976-2.482-5.447-3.268-7.312c-1.461-3.779-1.823-5.009-0.699-2.699
		c-0.789-1.937-0.854-2.11-0.388-0.99c0.481,1.118,1.421,3.562,2.963,6.728c0.762,1.584,1.561,3.402,2.558,5.304
		c1.007,1.897,2.091,3.937,3.223,6.067c1.199,2.091,2.498,4.24,3.803,6.431c1.325,2.179,2.802,4.305,4.206,6.448
		c5.769,8.496,12.271,15.959,16.031,19.953c0.931,1,1.737,1.75,2.277,2.291c0.547,0.525,0.861,0.813,0.896,0.815
		c0.037-0.002-0.205-0.29-0.764-0.911c-0.544-0.632-1.478-1.539-2.641-2.937c-4.512-5.05-9.424-11.167-14.396-18.364
		c-4.891-7.25-9.783-15.617-14.146-25.096c-4.36-9.473-8.187-20.06-10.962-31.572c-2.759-11.509-4.563-23.939-4.73-36.909
		c-0.2-12.96,1.087-26.436,4.044-39.86c2.953-13.407,7.706-26.76,14.083-39.581c0.755-1.622,1.639-3.185,2.498-4.762
		c0.868-1.57,1.712-3.16,2.616-4.718c0.943-1.536,1.884-3.076,2.828-4.615l1.433-2.299l1.528-2.245
		c1.026-1.493,2.051-2.985,3.079-4.481l3.288-4.344l1.653-2.166l1.747-2.095l3.512-4.178l3.705-4.02l1.861-2l1.942-1.923
		l3.908-3.825l4.073-3.644l2.044-1.811l2.118-1.722l4.25-3.426l4.394-3.23l2.024-1.468c-6.555,4.476-13.935,10.266-20.325,16.273
		c-1.774,1.716-3.551,3.362-5.179,5.026c-1.602,1.688-3.137,3.308-4.576,4.829c-1.421,1.535-2.665,3.042-3.833,4.372
		c-1.152,1.341-2.205,2.522-3.024,3.597c-3.357,4.234-4.458,5.529-1.533,1.514c0.674-0.961,1.616-2.206,2.836-3.735
		c16.145-19.476,36.236-35.115,58.69-46.036c1.493-0.703,3.004-1.4,4.554-2.088c7.498-3.188,15.764-6.22,25.592-8.8
		c9.076-2.362,19.532-4.329,31.832-5.183c-10.74,0.792-19.261,2.408-26.061,3.915c-7.407,1.79-12.804,3.455-16.857,4.82
		c-4.035,1.422-6.793,2.373-8.8,3.216c-2.025,0.792-3.356,1.314-4.569,1.786c-1.213,0.476-2.278,0.973-3.799,1.647
		c-1.502,0.709-3.514,1.514-6.377,3.073c-1.44,0.769-3.125,1.667-5.117,2.734c-1.94,1.161-4.185,2.502-6.803,4.067
		c-5.086,3.344-11.621,7.676-19.345,14.296c0.482-0.315,2.388-1.807,5.193-4.008c1.389-1.116,3.106-2.274,4.937-3.613
		c0.925-0.657,1.874-1.36,2.881-2.049c1.024-0.67,2.079-1.36,3.158-2.067c1.079-0.7,2.183-1.42,3.301-2.143
		c1.147-0.68,2.309-1.368,3.477-2.059l3.518-2.058c1.201-0.634,2.396-1.266,3.581-1.893c1.181-0.618,2.354-1.232,3.496-1.832
		c1.171-0.552,2.319-1.09,3.435-1.616c2.232-1.037,4.313-2.03,6.248-2.783c-9.29,3.938-17.461,8.402-24.719,13.019
		c-7.27,4.61-13.506,9.54-19.119,14.311c-11.089,9.736-19.328,19.303-26.012,28.466c0.054,0.531-6.125,9.472-11.381,19.973
		c-1.379,2.591-2.584,5.329-3.764,7.979c-1.229,2.628-2.193,5.269-3.117,7.669c-0.449,1.205-0.911,2.34-1.264,3.435
		c-0.349,1.095-0.672,2.115-0.967,3.048c-0.578,1.866-1.015,3.375-1.267,4.388c-2.146,6.628-5.212,17.345-6.912,29.576
		c-1.766,12.206-2.18,25.823-1.105,37.546c-0.146-1.644-0.188-3.753-0.311-6.265c-0.154-2.512-0.107-5.438-0.095-8.718
		c0.009-0.822,0-1.665,0.028-2.529c0.043-0.862,0.088-1.749,0.134-2.656c0.099-1.811,0.181-3.707,0.32-5.677
		c0.401-3.928,0.76-8.173,1.525-12.626c1.396-8.921,3.658-18.738,7.128-28.853c3.459-10.12,8.158-20.542,14.089-30.55
		c5.917-10.017,13.054-19.602,21.031-28.218c7.971-8.624,16.768-16.273,25.787-22.688c9.018-6.424,18.25-11.613,26.999-15.633
		c8.752-4.023,17.008-6.918,24.139-8.992c1.993-0.328-7.862,2.621-14.783,5.485c-6.867,2.987-11.16,4.854,1.001,0.081
		c9.886-3.917,17.456-5.75,22.889-7.12c2.75-0.579,4.972-1.048,6.752-1.427c1.793-0.327,3.16-0.522,4.169-0.688
		c4.051-0.638,2.5-0.361,1.154-0.094c-1.346,0.269-2.484,0.523,2.363-0.138c1.213-0.168,2.817-0.282,4.878-0.491
		c1.031-0.101,2.174-0.208,3.456-0.329c1.275-0.099,2.688-0.149,4.238-0.233c6.19-0.359,14.684-0.466,26.047,0.694
		c2.758,0.376,1.391,0.299-2.535-0.039c-0.982-0.077-2.119-0.199-3.4-0.278c-1.277-0.056-2.695-0.117-4.226-0.182
		c-3.054-0.19-6.563-0.143-10.323-0.115c-7.507,0.213-16.028,0.867-23.856,2.271c-7.827,1.376-15,3.161-19.986,4.786
		c2.317-0.752,5.928-1.643,10.386-2.733c2.245-0.486,4.715-0.956,7.346-1.479c2.635-0.474,5.467-0.845,8.398-1.289
		c8.645-1.132,18.382-1.503,27.778-1.113c-14.779-0.578-31.263,0.88-48.063,5.257c-20.662,5.373-41.761,15.279-60.009,29.684
		c-9.138,7.164-17.591,15.36-25.047,24.333c-7.46,8.969-13.918,18.713-19.19,28.844c-10.596,20.296-16.242,41.923-17.834,61.979
		c-1.127,12.616-0.576,27.952,2.373,43.437c1.477,7.744,3.633,15.486,6.188,22.966c2.595,7.478,5.794,14.616,9.165,21.266
		c6.912,13.229,14.933,24.246,21.671,31.954c1.722,1.891,3.307,3.637,4.732,5.202c1.451,1.543,2.814,2.847,3.947,3.993
		c2.26,2.31,3.911,3.72,4.539,4.305c-0.87-0.82-1.806-1.654-2.736-2.572c-0.917-0.938-1.875-1.916-2.868-2.929
		c-2.026-1.995-4.042-4.3-6.207-6.745c-1.105-1.203-2.16-2.514-3.246-3.865c-1.08-1.355-2.224-2.724-3.331-4.179
		c-2.164-2.952-4.485-6.026-6.647-9.428c-4.407-6.738-8.797-14.356-12.598-22.919c-3.821-8.548-7.165-17.98-9.645-28.146
		c-4.983-20.287-6.413-43.687-2.074-67.282c2.14-11.78,5.597-23.551,10.433-34.984c4.85-11.415,10.998-22.504,18.523-32.655
		c7.486-10.175,16.176-19.512,25.749-27.713c9.627-8.138,20.127-15.128,31.109-20.813c21.985-11.394,45.949-17.173,68.458-18.024
		c11.262-0.438,22.172,0.335,32.395,2.021c10.234,1.682,19.754,4.26,28.469,7.332c1.088,0.394,2.17,0.784,3.232,1.169
		c0.535,0.196,1.063,0.392,1.602,0.583c0.518,0.215,1.037,0.432,1.551,0.645c2.061,0.868,4.088,1.72,6.074,2.551
		c3.889,1.859,7.652,3.597,11.107,5.556c3.52,1.827,6.707,3.879,9.777,5.735c1.512,0.963,2.947,1.971,4.355,2.915
		c1.395,0.956,2.773,1.857,4.035,2.836c5.33,3.92,8.379,6.638,9.959,7.963c1.564,1.339,1.588,1.383,0.467,0.459
		c-2.258-1.813-8.979-7.678-18.039-13.425c-2.262-1.433-4.666-2.849-7.104-4.32c-2.484-1.371-5.025-2.74-7.574-4.078
		c-2.594-1.232-5.16-2.489-7.691-3.624c-2.561-1.063-5.045-2.116-7.414-3.049c-2.402-0.854-4.664-1.659-6.729-2.394
		c-2.08-0.699-3.988-1.224-5.617-1.722c-3.266-1.019-5.539-1.495-6.23-1.658c-5.115-1.351-9.447-2.06-12.941-2.731
		c-3.523-0.514-6.246-0.866-8.254-1.126c-4.035-0.341-5.216-0.39-4.357-0.256c1.705,0.237,11.586,1.289,22.711,4.082
		c2.768,0.738,5.656,1.41,8.465,2.354c2.822,0.884,5.656,1.75,8.318,2.794c1.332,0.5,2.648,0.99,3.924,1.468
		c1.279,0.472,2.48,1.04,3.654,1.529c2.336,1.024,4.5,1.901,6.303,2.841c3.641,1.797,6.154,3.071,6.787,3.521
		c0.635,0.438-0.465-0.234-4.252-1.958c0,0-0.666-0.325-1.824-0.893c-1.156-0.571-2.809-1.399-4.85-2.243
		c-4.051-1.802-9.543-3.982-15.15-5.797c-2.814-0.871-5.611-1.824-8.297-2.466c-2.68-0.673-5.158-1.4-7.34-1.8
		c-2.164-0.447-3.979-0.818-5.244-1.081c-0.629-0.135-1.127-0.224-1.475-0.272c-0.34-0.054-0.523-0.081-0.523-0.081
		c-2.668-0.39-4.584-0.65-5.824-0.801c-1.234-0.168-1.809-0.172-1.793-0.136c0.01,0.036,0.613,0.123,1.695,0.336
		c1.088,0.193,2.664,0.469,4.639,0.817c7.877,1.418,22.047,4.58,36.025,10.491c-6.785-2.745-19.133-7.303-35.018-9.954
		c-7.928-1.354-16.715-2.111-25.906-2.159c-9.188-0.037-18.782,0.737-28.273,2.407c-9.483,1.691-18.846,4.266-27.625,7.522
		c-8.782,3.248-16.969,7.169-24.268,11.328c-7.32,4.131-13.628,8.666-18.981,12.759c-5.285,4.187-9.57,8.017-12.688,11.098
		c-2.565,2.952,2.358-2.409,13.739-11.137c5.762-4.256,13.182-9.293,22.236-14.06c9.036-4.777,19.697-9.272,31.546-12.648
		c11.838-3.402,24.892-5.463,38.307-5.965c13.424-0.475,27.194,0.912,40.405,3.815c13.188,2.979,25.795,7.612,37.166,13.298
		c11.393,5.648,21.383,12.53,29.795,19.439c0,0-4.238-3.761-11.193-8.657c-6.914-4.93-16.691-10.791-27.096-15.36
		c-10.373-4.644-21.26-7.953-29.57-9.847c-2.084-0.444-3.996-0.849-5.689-1.211c-1.697-0.344-3.201-0.54-4.43-0.751
		c-2.459-0.394-3.869-0.615-3.869-0.615c9.102,1.126,16.914,2.95,23.84,4.816c6.867,2.046,12.883,4.122,18.246,6.449
		c10.75,4.587,19.176,9.385,27.518,15.05c8.299,5.721,16.574,12.356,25.922,22.077c0.586,0.607,1.188,1.21,1.77,1.849
		c0.578,0.648,1.164,1.306,1.754,1.972c1.172,1.344,2.418,2.691,3.619,4.148c1.186,1.472,2.398,2.988,3.656,4.551
		c0.695,0.859,1.367,1.774,2.041,2.702c3.297,4.113,6.406,8.384,9.289,12.817c-2.623,0.738-5.242,1.745-7.826,2.972
		c-20.244-32.403-52.225-56.748-89.945-67.049c-0.434-0.118-0.867-0.237-1.307-0.352c-0.846-0.223-1.699-0.431-2.551-0.639
		c-0.779-0.19-1.555-0.384-2.348-0.564c-0.295-0.067-0.594-0.127-0.891-0.193c-1.174-0.258-2.352-0.512-3.545-0.746
		c-1.209-0.25-2.439-0.469-3.67-0.681c-0.246-0.042-0.49-0.094-0.738-0.135c-4.139-0.685-8.402-1.17-12.72-1.561
		c-0.394-0.032-0.782-0.067-1.174-0.096c-1.396-0.091-2.798-0.145-4.203-0.216c-1.55-0.06-3.099-0.188-4.656-0.153
		c-3.114,0.017-6.241-0.043-9.364,0.181c-1.561,0.089-3.122,0.145-4.676,0.266c-1.557,0.157-3.106,0.314-4.656,0.469l-2.323,0.243
		l-2.3,0.342c-1.532,0.233-3.058,0.465-4.583,0.696c-1.513,0.258-3.009,0.591-4.507,0.882c-1.491,0.318-2.99,0.563-4.446,0.961
		c-2.921,0.754-5.832,1.408-8.618,2.317c-11.238,3.354-21.299,7.792-29.518,12.292c-8.229,4.506-14.66,8.988-19.031,12.271
		c-2.195,1.635-3.827,3.041-4.979,3.946c-0.176,0.139-0.316,0.253-0.466,0.377c0.887-0.722,2.204-1.791,3.903-3.178
		c1.671-1.319,3.777-2.812,6.157-4.573c1.21-0.855,2.539-1.704,3.915-2.63c1.383-0.923,2.834-1.896,4.412-2.804
		C217.359,129.33,224.937,125.407,233.385,121.978L233.385,121.978z M296.961,436.513c1.375-0.063,2.203-0.106,3.302-0.158
		c1.588-0.125,3.146-0.2,4.592-0.359c1.439-0.169,2.781-0.326,3.955-0.462c2.336-0.28,3.996-0.466,4.439-0.563
		c-0.287,0.045-1.172,0.182-2.855,0.361c-1.262,0.146-2.967,0.338-5.178,0.595C303.007,436.163,300.271,436.289,296.961,436.513z
		 M294.141,437.226c0.64-0.004,1.3,0,2-0.024c0.957-0.048,1.974-0.099,3.056-0.15C297.51,437.136,295.825,437.188,294.141,437.226z
		 M249.103,114.722c4.979-1.482,10.057-2.737,15.228-3.731c-1.646,0.287-3.293,0.59-4.936,0.927
		c-8.529,1.756-16.949,4.264-24.791,7.284c-7.834,3.064-15.063,6.662-21.4,10.287c-12.663,7.325-21.591,14.868-25.602,18.465
		c-0.389,0.434,0.89-0.769,3.633-3.01c1.392-1.096,3.112-2.502,5.168-4.091c1.052-0.764,2.183-1.583,3.381-2.453
		c1.201-0.871,2.463-1.806,3.854-2.688c1.38-0.902,2.822-1.849,4.324-2.833c1.528-0.945,3.146-1.875,4.804-2.86
		c1.641-1.01,3.41-1.924,5.215-2.877c1.804-0.963,3.656-1.947,5.612-2.827C231.3,120.615,239.979,117.259,249.103,114.722z
		 M210.544,130.343c0.968-0.567,2.004-1.176,3.073-1.804c-1.404,0.797-2.728,1.579-3.991,2.344
		C209.932,130.706,210.229,130.534,210.544,130.343z M294.492,108.128c-0.688-0.02-1.372-0.057-2.063-0.069
		c-7.994-0.129-16.113,0.516-24.031,1.634c-7.929,1.1-15.629,2.924-22.826,5.111c-3.617,1.044-7.063,2.327-10.401,3.539
		c-1.669,0.62-3.267,1.33-4.852,1.974c-1.585,0.65-3.135,1.296-4.608,2.021c-3.975,1.828-7.613,3.705-10.903,5.533
		c1.184-0.623,2.407-1.268,3.689-1.943c0.74-0.385,1.494-0.781,2.261-1.184c0.787-0.369,1.585-0.746,2.397-1.128
		c1.633-0.749,3.304-1.57,5.054-2.321c1.769-0.723,3.583-1.466,5.44-2.225c1.859-0.755,3.811-1.384,5.763-2.097
		c7.883-2.704,16.512-4.941,25.275-6.39c4.534-0.774,9.093-1.301,13.591-1.625C283.611,108.418,289.017,108.129,294.492,108.128z
		 M172.691,363.616c1.203,1.428,2.406,2.821,3.604,4.138C175.942,367.251,174.688,365.953,172.691,363.616z M152.666,303.195
		c-0.05-0.176-0.101-0.354-0.151-0.532C152.564,302.841,152.616,303.018,152.666,303.195z M150.667,294.813
		c-0.434-2.465-0.967-4.916-1.286-7.241c-0.303-2.329-0.635-4.488-0.829-6.355c-0.32-3.735-0.534-6.229-0.534-6.229
		c-0.417-5.588-0.882-14.314,0.097-24.946c-0.491,4.807-0.743,9.684-0.743,14.619c0,12.76,1.692,25.121,4.845,36.885
		C151.713,299.379,151.141,297.112,150.667,294.813z M164.997,168.679c5.964-7.804,13.796-16.42,23.229-24.459
		c9.447-8.012,20.519-15.354,32.229-21.181c11.75-5.751,24.082-10.024,35.731-12.575c11.655-2.551,22.55-3.501,31.447-3.601
		c2.227,0.012,4.326,0.026,6.295,0.038c1.958,0.105,3.782,0.206,5.455,0.296c1.668,0.071,3.183,0.229,4.529,0.387
		c1.34,0.152,2.518,0.287,3.52,0.398c1.998,0.208,3.258,0.481,3.689,0.583c0.432,0.112,0.031,0.104-1.314-0.036
		c0,0,2.061,0.281,5.141,0.699c0.768,0.114,1.607,0.205,2.482,0.364c0.877,0.163,1.801,0.336,2.752,0.515
		c1.664,0.337,3.449,0.619,5.215,1.023c9.277,1.829,18.262,4.476,26.883,7.843c-1.322-0.578-2.639-1.142-4.037-1.759
		c-1.957-0.744-4.09-1.555-6.689-2.543c-1.291-0.509-2.752-0.915-4.334-1.443c-1.08-0.332-2.23-0.72-3.471-1.1
		c2.453,0.721,4.66,1.441,6.689,2.049c2.488,0.887,4.691,1.673,6.73,2.398c2.041,0.725,3.846,1.542,5.621,2.241
		c0.887,0.357,1.744,0.71,2.605,1.06c0.852,0.372,1.684,0.772,2.535,1.162c1.682,0.791,3.416,1.564,5.242,2.473
		c1.801,0.961,3.73,1.989,5.873,3.131c0.293,0.166,0.6,0.346,0.9,0.521c11.977,6.475,23.039,14.43,32.914,23.643
		c-6.461-6.516-15.059-13.987-26.535-21.318c0.762,0.605,0.459,0.509-0.875-0.25c-0.67-0.389-1.59-0.931-2.773-1.627
		c-1.184-0.701-2.596-1.582-4.344-2.487c-6.836-3.822-18.178-9.498-34.371-14.04c-10.941-3.249-24.535-5.751-39.99-6.277
		c-7.731-0.153-15.907,0.181-24.38,1.243c-8.468,1.065-17.202,2.952-26.006,5.627c-17.598,5.35-35.451,14.212-51.491,26.718
		c-16.052,12.459-30.223,28.572-40.664,47.076c-10.479,18.498-17.186,39.149-19.674,60.05c-2.522,20.916-0.703,41.952,4.583,61.042
		c5.265,19.127,13.904,36.264,24.042,50.518c1.297,1.762,2.531,3.549,3.861,5.229c1.344,1.672,2.672,3.327,3.987,4.957
		c2.754,3.162,5.438,6.267,8.277,9.075c2.74,2.909,5.663,5.482,8.433,8.052c2.895,2.422,5.643,4.852,8.503,6.941
		c0,0-0.604-0.466-1.664-1.289c-1.079-0.799-2.509-2.074-4.26-3.563c-0.872-0.75-1.813-1.562-2.81-2.422
		c-0.958-0.898-1.967-1.853-3.011-2.836c-1.031-1-2.146-1.979-3.183-3.074c-1.042-1.086-2.103-2.186-3.162-3.288l-1.583-1.658
		c-0.5-0.571-1.001-1.142-1.495-1.71c-0.988-1.132-1.96-2.25-2.899-3.332c-1.852-2.182-3.46-4.319-4.89-6.107
		c-1.397-1.811-2.464-3.395-3.253-4.47c-0.774-1.087-1.217-1.71-1.217-1.71s1.59,2.155,3.976,5.382
		c1.269,1.556,2.749,3.375,4.333,5.321c1.614,1.919,3.443,3.877,5.226,5.877c1.831,1.95,3.745,3.825,5.506,5.613
		c1.813,1.736,3.561,3.294,5.036,4.658c1.459,1.379,2.803,2.384,3.688,3.156c0.903,0.747,1.417,1.172,1.417,1.172
		c-5.526-4.615-13.526-11.923-21.955-22.414c-4.28-5.185-8.502-11.275-12.643-18.062c-4.15-6.788-7.987-14.425-11.346-22.747
		c-6.735-16.613-11.292-36.219-11.596-57.021c-0.369-20.789,3.563-42.555,11.816-62.759c8.206-20.253,20.859-38.811,36.099-53.594
		c15.208-14.853,32.87-25.933,50.367-33.111c8.746-3.606,17.447-6.276,25.81-8.178c8.38-1.873,16.417-2.89,23.875-3.433
		c14.943-0.95,27.519,0.256,36.64,1.83c-2.27-0.261-6.607-0.981-12.612-1.418c-0.754-0.063-1.521-0.144-2.319-0.193
		c-0.806-0.034-1.633-0.069-2.478-0.104c-1.701-0.065-3.489-0.132-5.366-0.202c-3.748,0.028-7.846-0.007-12.204,0.319
		c-8.717,0.537-18.502,1.88-28.629,4.414c-10.12,2.521-20.557,6.231-30.566,11.06c-10.012,4.821-19.595,10.739-28.126,17.346
		c-8.54,6.604-16.05,13.837-22.288,20.948c-12.506,14.273-19.714,27.905-22.992,34.578c-0.157,0.453,0.075,0.081,0.651-1
		c0.286-0.543,0.665-1.261,1.127-2.141c0.491-0.865,1.073-1.89,1.737-3.061C154.774,183.391,159.042,176.498,164.997,168.679
		L164.997,168.679z M354.8,426.385C358.593,425.013,361.107,423.805,354.8,426.385z M373.265,417.235
		c-3.734,2.06-14.693,7.456-27.295,11.613c-3.16,0.979-6.393,2.008-9.617,2.858c-3.25,0.795-6.432,1.696-9.549,2.265
		c-3.1,0.625-6.051,1.239-8.797,1.61c-2.732,0.404-5.213,0.832-7.363,1.019c-4.289,0.466-7.156,0.759-7.762,0.793
		c-0.594,0.071,1.095,0.105,5.9-0.342c-3.697,0.394-0.947,0.197,4.865-0.482c5.791-0.799,14.633-2.306,22.992-4.644
		c2.098-0.542,4.139-1.225,6.135-1.818c0.992-0.311,1.969-0.609,2.93-0.906c0.939-0.335,1.859-0.661,2.744-0.979
		c1.779-0.646,3.441-1.24,4.938-1.784c1.48-0.605,2.793-1.139,3.895-1.591c2.125-0.88,3.459-1.435,3.672-1.518
		c6.268-2.732,10.047-4.8,12.031-5.867C375.326,416.201,375.166,416.256,373.265,417.235z M360.46,423.543
		c-0.555,0.235-1.559,0.664-3.131,1.325C358.441,424.411,359.48,423.967,360.46,423.543z M333.24,433.501
		c-1.082,0.286-2.201,0.6-3.373,0.897c1.178-0.294,2.326-0.599,3.432-0.882c1.672-0.455,3.254-0.885,4.75-1.289
		c2.947-0.93,5.514-1.765,7.625-2.469c-2.293,0.729-4.859,1.547-7.764,2.469C336.445,432.631,334.888,433.052,333.24,433.501z
		 M360.951,423.331c-0.158,0.071-0.322,0.141-0.49,0.212C360.9,423.359,361.054,423.293,360.951,423.331z M134.331,311.857
		c-0.258-0.848-0.53-1.744-0.825-2.707C133.797,310.116,134.071,311.01,134.331,311.857z M136.343,317.96
		C136.344,317.96,136.344,317.961,136.343,317.96C136.344,317.961,136.344,317.961,136.343,317.96L136.343,317.96z M134.331,311.857
		c0.221,0.721,0.432,1.41,0.624,2.041c0.516,1.773,1.07,3.121,1.389,4.063c-0.318-0.952-0.875-2.313-1.396-4.107
		C134.758,313.236,134.548,312.561,134.331,311.857z M325.378,417.267c-1.688,0.396-3.629,0.775-5.758,1.254
		C321.507,418.147,323.433,417.721,325.378,417.267z M345.673,429.76c3.92-1.427,7.197-2.587,9.127-3.375
		c-0.904,0.343-2.113,0.687-3.205,0.949C352.542,427.094,349.843,428.202,345.673,429.76z M136.406,318.133
		c-0.021-0.061-0.038-0.107-0.063-0.172c0.001,0.002,0.002,0.006,0.002,0.008C136.369,318.031,136.386,318.075,136.406,318.133z
		 M331.583,415.563c-0.861,0.262-2.391,0.688-4.422,1.24c-0.473,0.139-0.979,0.268-1.508,0.394
		c9.973-2.361,20.527-5.85,30.041-10.312c11.492-5.304,21.49-11.726,28.322-16.879c0.855-0.64,1.672-1.249,2.449-1.821
		c0.754-0.6,1.453-1.183,2.115-1.716c1.303-1.079,2.426-2.005,3.332-2.75c1.777-1.523,2.654-2.39,2.502-2.257
		c-0.176,0.098-1.322,1.251-3.963,3.327c-2.588,2.124-6.553,5.313-12.471,9.262c0,0-0.721,0.48-1.986,1.32
		c-1.246,0.866-3.094,1.98-5.334,3.308c-4.422,2.729-10.592,5.89-16.906,8.75c-3.199,1.322-6.365,2.732-9.445,3.779
		c-1.529,0.549-2.998,1.099-4.408,1.577c-1.426,0.443-2.771,0.854-4.014,1.243c-1.242,0.374-2.375,0.754-3.395,1.021
		c-1.025,0.266-1.916,0.492-2.656,0.682c-1.463,0.38-2.307,0.595-2.307,0.595C332.369,415.197,333.298,415.038,331.583,415.563z
		 M328.375,428.593c-2.246,0.479-4.508,0.958-6.746,1.433c-2.24,0.486-4.494,0.771-6.686,1.15
		c-8.793,1.339-16.922,1.864-22.411,1.919c-5.492,0.137-8.352-0.021-6.71,0.088c0.813,0.083,2.764,0.109,6.063,0.099
		c1.647-0.011,3.641,0.036,5.995-0.116c1.18-0.063,2.451-0.131,3.813-0.2c0.688-0.038,1.396-0.076,2.121-0.119
		c0.729-0.067,1.483-0.143,2.261-0.214c11.664-1.218,19.793-3.137,25.334-4.628c5.557-1.449,8.535-2.591,9.895-3.073
		c-2.047,0.625-4.137,1.36-6.314,1.93C332.814,427.43,330.605,428.01,328.375,428.593L328.375,428.593z M330.132,437.593
		c-0.219,0.047-0.34,0.071-0.34,0.071S329.921,437.644,330.132,437.593z M312.533,107.452c8.064,1.19,14.137,2.773,19.391,4.15
		C326.98,110.279,320.919,108.655,312.533,107.452z M323.314,404.665c-0.047,0.013-0.104,0.023-0.152,0.033
		c1.074-0.252,2.16-0.512,3.256-0.794C325.566,404.113,324.492,404.378,323.314,404.665z M332.193,437.088
		c1.527-0.388,3.703-0.949,6.32-1.61c2.578-0.768,5.592-1.677,8.797-2.709c1.59-0.563,3.23-1.152,4.893-1.75
		c1.668-0.593,3.354-1.213,5.002-1.922c1.66-0.688,3.318-1.377,4.949-2.06c1.629-0.687,3.186-1.468,4.715-2.172
		c1.521-0.729,3.004-1.398,4.373-2.107c1.361-0.726,2.652-1.403,3.844-2.036c1.189-0.637,2.273-1.225,3.24-1.739
		c0.936-0.556,1.76-1.04,2.438-1.439c1.348-0.802,2.119-1.265,2.119-1.265s-1.865,1.096-4.672,2.731
		c-1.436,0.759-3.111,1.64-4.906,2.588c-0.9,0.464-1.832,0.946-2.779,1.438c-0.957,0.452-1.943,0.909-2.928,1.37
		c-7.799,3.77-15.986,6.612-15.986,6.612s-1.336,0.488-3.342,1.23c-2,0.759-4.74,1.556-7.455,2.431
		c-0.688,0.216-1.363,0.427-2.035,0.636c-0.68,0.182-1.35,0.359-1.992,0.537c-1.291,0.344-2.498,0.664-3.541,0.936
		c-1.033,0.271-1.895,0.497-2.496,0.654c-0.252,0.065-0.457,0.113-0.615,0.149c0.084-0.017,0.18-0.038,0.291-0.06
		C330.832,437.428,331.429,437.278,332.193,437.088L332.193,437.088z M234.498,406.868c0.354,0.138,0.553,0.204,0.553,0.204
		S234.854,406.996,234.498,406.868z M132.664,210.467c0.005,0.003-0.059,0.191-0.051,0.192
		C136.481,199.814,135.745,201.87,132.664,210.467z M192.781,146.367c-0.822,0.667-1.278,1.039-1.278,1.039
		S191.953,147.041,192.781,146.367z M341.306,424.93c12.184-3.899,21.383-8.629,23.076-9.547c0.852-0.471-0.188-0.038-3.787,1.595
		c-3.604,1.57-9.824,4.279-19.691,7.347c-2.84,0.895-4.967,1.604-7.037,2.116c-2.057,0.537-3.998,1.095-6.438,1.664
		c4.873-1.069,9.27-2.108,11.941-2.892C342.064,424.484,343.105,424.264,341.306,424.93z M356.732,426.021
		c1.74-0.731,3.063-1.293,3.783-1.599c1.43-0.625,0.418-0.235-4.598,1.758c-2.537,1.148-3.988,1.645-5.539,2.278
		c1.213-0.442,2.369-0.855,3.441-1.246C354.878,426.78,355.855,426.381,356.732,426.021z M245.949,432.124
		c-0.772-0.194-1.521-0.401-2.274-0.604c0.052,0.017,0.115,0.032,0.157,0.047C245.177,431.925,245.949,432.124,245.949,432.124z"/>
	<path id="path193" fill="#FFECD1" d="M429.445,183.231c-5.965,1.549-11.975,4.534-17.525,8.705l21.346,22.61L429.445,183.231z"/>
</g>
</svg>
